<svg xmlns="http://www.w3.org/2000/svg" width="444.354" height="424.053" viewBox="0 0 444.354 424.053">
  <g id="Group_25" data-name="Group 25" transform="translate(0 570.059)">
    <path id="Path_7" data-name="Path 7" d="M206.574-570.059C92.563-570.059,0-477.5,0-363.486S92.563-156.912,206.574-156.912s206.574-92.562,206.574-206.574S320.585-570.059,206.574-570.059Zm0,7.067c110.111,0,199.507,89.4,199.507,199.507s-89.4,199.507-199.507,199.507S7.067-253.374,7.067-363.486,96.463-562.992,206.574-562.992Z" fill="#dabe79" fill-rule="evenodd"/>
    <path id="Path_8" data-name="Path 8" d="M248.525-555.4c-114.011,0-206.573,92.562-206.573,206.573s92.563,206.574,206.573,206.574S455.1-234.814,455.1-348.825,362.537-555.4,248.525-555.4Zm0,7.067c110.111,0,199.507,89.4,199.507,199.507s-89.4,199.507-199.507,199.507S49.019-238.714,49.019-348.825,138.415-548.331,248.525-548.331Z" transform="translate(-10.745 -3.755)" fill="#dabe79" fill-rule="evenodd"/>
    <path id="Path_9" data-name="Path 9" d="M294-213.964l1,.025-.25.012Z" transform="translate(-75.301 -91.205)" fill="#dabe79" fill-rule="evenodd"/>
    <path id="Path_10" data-name="Path 10" d="M208.341-291.8a.135.135,0,0,0-.043-.024c-59.277-20.083-72.474-87.875-72.474-87.875l-1.094-5.69,5.707-1a291.375,291.375,0,0,1,33.848-3.635v-29.459h11.926a73.955,73.955,0,0,1,32.428,7.479A81.989,81.989,0,0,1,250.669-458.2l3.289-2.322,3.286,2.322a82.071,82.071,0,0,1,32.214,46.849,73.9,73.9,0,0,1,33.736-8.137H335.12V-390a289.62,289.62,0,0,1,33.349,3.6l5.707,1-1.094,5.69s-12.848,66.947-71.274,87.434c-.038.013-.027,0-.123.073A80.342,80.342,0,0,1,254.7-277.076l-1.634-.039A79.729,79.729,0,0,1,208.341-291.8Zm72.269-99.623-1.817,1.73A62.8,62.8,0,0,0,260.4-345.3v56.586a68.754,68.754,0,0,0,26.766-7.89h0a65.517,65.517,0,0,0,9.194-5.894,65.2,65.2,0,0,0,7.146-6.194,69.02,69.02,0,0,0,20.216-48.8v-50.6h-.529a62.642,62.642,0,0,0-31.642,8.571A61.336,61.336,0,0,0,280.61-391.428Zm-67.145,89.25a63.613,63.613,0,0,0,6.652,4.408A68.921,68.921,0,0,0,249-288.71V-345.3a62.794,62.794,0,0,0-18.392-44.4c-1.053-1.054-2.141-2.066-3.272-3.022a62.1,62.1,0,0,0-10.9-7.6,62.629,62.629,0,0,0-30.225-7.768h-.529v50.6a69.023,69.023,0,0,0,20.216,48.8A65.51,65.51,0,0,0,213.465-302.178ZM184.8-317.791a80.138,80.138,0,0,1-10.511-39.7v-21.15c-8.8.5-17.569,1.312-25.853,2.516,3.311,11.8,13.116,39.284,36.364,58.347ZM335.12-378.614v21.121a80.172,80.172,0,0,1-10.063,38.91c22.573-19.019,32.153-45.913,35.417-57.544C352.349-377.309,343.757-378.111,335.12-378.614ZM228.9-405.95a71.969,71.969,0,0,1,9.775,8.193A74.166,74.166,0,0,1,254.7-373.81a74.178,74.178,0,0,1,16.031-23.947,73.583,73.583,0,0,1,8.468-7.274,70.6,70.6,0,0,0-25.245-41.389A70.65,70.65,0,0,0,228.9-405.95Z" transform="translate(-34.508 -28.055)" fill="#dabe79" fill-rule="evenodd"/>
    <path id="Path_11" data-name="Path 11" d="M288.365-34.61v.429l-.01-.214Z" transform="translate(-73.855 -137.141)" fill="#dabe79" fill-rule="evenodd"/>
    <path id="Path_12" data-name="Path 12" d="M288.369-34.034l.034.672h-.034Z" transform="translate(-73.858 -137.289)" fill="#dabe79" fill-rule="evenodd"/>
    <path id="Path_13" data-name="Path 13" d="M303.68-35.367v1.554l-.039-.777Z" transform="translate(-77.77 -136.948)" fill="#dabe79" fill-rule="evenodd"/>
    <path id="Path_14" data-name="Path 14" d="M277.141-204.333v20.991a25.058,25.058,0,0,0,25.049,24.311,25.1,25.1,0,0,0,25.088-25.088,25.1,25.1,0,0,0-25.066-25.087l-54.678.028v-.025c-34.174.46-47.058-29.964-47.058-29.964a5.676,5.676,0,0,1,3-7.442,5.676,5.676,0,0,1,7.442,3s10.053,23.455,36.533,23.061l18.292-.027V-285.31h11.383l.017,64.732,25.307,0a36.475,36.475,0,0,1,36.2,36.457,36.476,36.476,0,0,1-36.46,36.459,36.424,36.424,0,0,1-36.414-35.572l0-.11h-.03v-20.991Z" transform="translate(-51.23 -72.931)" fill="#dabe79" fill-rule="evenodd"/>
  </g>
</svg>
