<svg xmlns="http://www.w3.org/2000/svg" width="244.362" height="351.375" viewBox="0 0 244.362 351.375">
  <g id="Group_20" data-name="Group 20" transform="translate(-73.32 460.635) rotate(25)">
    <path id="Path_6" data-name="Path 6" d="M90.762-237.1c-5.651,3.7-13.035,8.2-19.911,8.815a46.615,46.615,0,0,1-11.316-.831c-1.607-.257-6.613-.989-8.866-2.767,5.157.353,10.98-1.89,15.485-3.263,7.785-2.369,14.76-7.489,22.868-8.662.02,0,.02-.037,0-.034-6.936.8-13.219,4.124-19.819,6.2a65.537,65.537,0,0,1-11.322,2.322c-2.575.324-5.23.152-7.825.239.092-.5.184-.987.27-1.48.119-.665.231-1.332.343-2,5.638-7.516,14.648-11.648,24.054-13.9C81.139-254,87.8-255.2,94.391-254.274c5.829.817,11.039,4.032,15.781,7.423-.151.076-.3.151-.441.226-4.15-2.525-11.362-.673-15.373,1.278-.112.053-.026.2.079.185,2.648-.471,5.124-1.419,7.831-1.649,2.239-.19,4.42.4,6.633.607C102.835-243.183,96.459-240.831,90.762-237.1ZM35.5-237.648c-6.007-1.765-12.89-2.164-17.85-6.336-9.82-8.258-9.643-21.7-12.837-33.452.883,1.451,1.844,2.855,2.773,4.23,2.8,4.148,5.52,8.274,8.115,12.549a.083.083,0,0,0,.151-.066c-1.291-4-3.906-7.511-6.29-10.92a78.165,78.165,0,0,1-6.1-10.028c-.3-.794-.626-1.576-.981-2.343,10.611,3.729,20.853,9.224,28.757,17.3a35.245,35.245,0,0,1,9.327,17.279c.751,3.177,1.357,6.388,1.969,9.6-3.017-4.31-7.766-8.128-11.177-11.029-6.475-5.5-12.877-11.135-17.342-18.467-.026-.047-.1-.005-.073.043,3.346,6.878,8.938,11.849,14.3,17.155,2.951,2.915,5.875,5.869,8.615,8.975.342.385.665.783.981,1.19-1.317-.96-2.628-1.885-3.814-2.816-5.855-4.6-12.06-9.033-17.165-14.484-.013-.016-.033.009-.02.024,4.558,5.078,9.781,9.2,15.123,13.409a85.658,85.658,0,0,1,7.146,6.864c1.153,1.144,2.193,2.426,3.247,3.7.343.487.7.959,1.08,1.421C41.409-235.828,38.438-236.782,35.5-237.648ZM28.42-302.571c-5.388-6-9.788-12.784-14.761-19.125a29.451,29.451,0,0,1,2.872,1.67c2.312,1.62,4.8,2.963,7.193,4.451,6.066,3.759,11.652,7.538,15.985,13.3.105.144.342.016.244-.145-3.5-5.74-9.07-10.158-14.609-13.833-3.017-2-5.618-4.39-8.569-6.453a9.87,9.87,0,0,0-2.628-1.331c7.575-.388,15.156.288,21.676,4.62,8.793,5.843,12.929,15.588,15.274,25.46-.02.6-.039,1.2-.066,1.8-.876-.689-1.818-1.325-2.549-1.951a59.5,59.5,0,0,1-5.322-5.116c-.125-.136-.316.068-.2.206,1.633,1.911,2.872,4.077,4.426,6.043a14.678,14.678,0,0,0,3.537,3.535c-.007.178-.013.356-.026.534C41.791-291.075,34.822-295.451,28.42-302.571Zm7.423-49.174a28.056,28.056,0,0,1-13.213-6.049c-7.614-6.309-11.994-15.711-17.355-23.856,9.063-3.071,19.964-2.516,28.171,2.475,4.709,2.865,7.66,8.112,10.11,12.869,1.864,3.617,3.662,7.114,5.724,10.533,0,.073,0,.146.007.221-6.139-2.538-11.428-6.756-17.257-9.956-8.563-4.7-15.136-14.52-25.6-15.384a.27.27,0,0,0-.125.506,61.018,61.018,0,0,1,15.149,8.132,83.122,83.122,0,0,1,10.92,9.543c2.714,2.959,7.133,5.215,10.571,7.176a27,27,0,0,0,6.27,2.9C45.466-350.334,39.828-351.016,35.843-351.746Zm-6.257-74.288c-4.709-4.766-7.225-11.268-10.1-17.23,12.89-2.828,21.117,9.694,26.28,20.8-2.766-2.41-6.132-4.421-8.806-6.494-4.96-3.839-9.182-8.695-13.937-12.779-.1-.087-.217.045-.138.145a73.462,73.462,0,0,0,12.765,12.058c3.695,2.8,6.567,7.1,10.295,10.008l-.665-.313a22.3,22.3,0,0,1-4.347-3.326c-2.384-2-4.729-4.035-7.166-5.975-.059-.045-.138.034-.079.086,2.536,2.3,4.795,4.873,7.377,7.133a23.622,23.622,0,0,0,4.782,3.561c-1.956-.684-4.038-1.12-5.974-1.7A23.143,23.143,0,0,1,29.586-426.034ZM51.8-490.594c1.91-6.727,6.745-16.159,14.912-15.68-1.08,6.444-1.706,12.956-3.1,19.348-1.489,6.848-3.952,12.483-8.918,16.948.342-1.757.494-3.6.744-5.3a75.722,75.722,0,0,1,1.824-8.539c1.548-5.87,3.537-12.08,7.034-17.068.033-.047-.046-.1-.079-.059A42.843,42.843,0,0,0,56.7-486.22c-.948,3.156-1.535,6.394-2.384,9.573a33.822,33.822,0,0,0-1.4,7.81c-.046.039-.092.075-.132.115C48.489-474.626,49.965-484.16,51.8-490.594ZM84.156-449c-5.48,12.693-15.854,28.9-30.865,30,1.363-1.271,2.694-2.6,4.136-3.712,2.608-2.015,5.282-3.908,7.812-6.028,5.684-4.752,8.332-12.113,14.168-16.8.1-.079-.033-.233-.138-.169-6.2,3.864-9.669,10.733-15.406,15.225-2.74,2.145-7.16,4.394-10.479,7.243C58.672-436.9,67.781-452.93,84.156-449Zm-36.2,31.518c-.27-.135-.553-.258-.83-.377a5.757,5.757,0,0,0,.731.149C47.89-417.631,47.923-417.553,47.956-417.479Zm50.644,24.6c-6.481,7.812-12.231,16.182-19.279,23.532a55.649,55.649,0,0,1-13.094,10.413,27.248,27.248,0,0,1-7.456,2.789,6.888,6.888,0,0,1-1.179.126c2.286-2.333,3.959-5.577,5.73-8,.118-.162-.152-.356-.277-.207-1.436,1.66-2.971,3.2-4.406,4.856-.955,1.109-2.1,2.093-3.142,3.149,1.64-1.946,2.977-4.418,4.261-6.246,2.766-3.94,5.368-8.011,8.424-11.73,6.073-7.386,13.443-14.241,22.684-17.375a.185.185,0,0,0-.1-.356c-9.34,2.068-15.874,8.325-22.493,14.867a91.591,91.591,0,0,0-9.188,10.726c-1.232,1.687-2.957,3.646-4.439,5.711C62.124-378.27,79.334-403.691,98.6-392.878ZM68.763-322.344A74.231,74.231,0,0,1,83.2-335.651c3.879-2.674,9.5-6.135,14.576-5.416a15.077,15.077,0,0,0-2.022,1.106,8.2,8.2,0,0,0-3.735,3.731c-.119.261.224.566.428.317a11.753,11.753,0,0,1,3.537-2.778,9.906,9.906,0,0,1,2.18-.665c-5.52,12.908-5.8,30.3-18.732,38.189-5.3,3.235-11.263,5.4-16.789,8.21-.85.433-1.791.906-2.76,1.428,2.5-2.738,4.624-5.987,6.685-8.713,3.912-5.176,7.337-10.521,11.935-15.147.323-.323-.191-.816-.507-.49-4.459,4.558-9.083,9.043-13.278,13.845-.817.93-1.693,1.863-2.589,2.8,1.62-3.446,3.353-6.829,6.053-9.485,3.7-3.641,7.706-6.77,11.065-10.768,3.6-4.283,6.567-9.033,10.347-13.178.25-.281-.171-.691-.428-.41-3.491,3.851-6.369,8.169-9.557,12.266-3.208,4.131-7.179,7.35-11.072,10.8a51.783,51.783,0,0,0-9.412,11.627c.843-1.861,1.8-3.67,2.773-5.466,2.411-4.429,5.052-8.418,6.8-13.193.059-.16-.217-.267-.283-.108-2,4.825-5.144,9.344-8.062,13.659a41.374,41.374,0,0,0-4.038,7.135C58.745-305.881,62.631-315.06,68.763-322.344Zm44.156,74.62c-5.724-4.184-11.7-7.906-18.752-9.239-6.916-1.3-14.365.41-21.077,2.029-7.291,1.759-15.716,5.152-21.466,10.657,2.173-13.657,3.682-27.6,3.451-41.449,2.845-3.522,9.017-5.778,12.442-7.392,5.012-2.364,10.736-4.291,15.123-7.77,12.244-9.709,11.974-27.133,18.732-40.066a1.115,1.115,0,0,0-.448-1.511c-5.408-2.222-11.164.277-15.926,2.97a82.82,82.82,0,0,0-17.441,13.859,50.959,50.959,0,0,0-12.514,22.151q.128-6.475.013-12.954c-.224-12.046-.955-24.077-1.686-36.11a.943.943,0,0,0,.2-1.209c.145.022.3.036.455.044a.479.479,0,0,0,.362.01c.52,0,1.041-.045,1.449-.043a24.734,24.734,0,0,0,7.462-1.385c5.487-1.724,10.262-5.43,14.471-9.224C86.9-372.574,93.449-383,101.248-392.368a1.214,1.214,0,0,0-.29-1.867C79.3-408.8,59.825-381.375,52.837-361.4c-.461-7.85-.869-15.7-1.087-23.564-.3-10.62-.672-21.306-.823-31.992.441-.339.869-.7,1.3-1.075,17.184,1.006,28.414-17.021,34.224-31.168a1.041,1.041,0,0,0-.652-1.479c-17.685-5.3-31.023,11.889-34.935,27.774-.007-1.533-.013-3.065-.007-4.6.448-6.862.25-13.854.949-20.646.356-3.509.211-7.113.454-10.641.2-2.884,1.172-5.614,1.6-8.412.013-.014.026-.028.039-.044,5.915-2.756,8.971-9.83,10.7-15.723,2.3-7.8,2.628-15.99,4.183-23.939a.978.978,0,0,0-.711-1.177c-9.32-1.516-14.978,7.17-17.8,14.824-2.839,7.7-4.367,19.37,1.278,26.26a18.29,18.29,0,0,0-1.192,4.9,60.7,60.7,0,0,0-.329,11.42c.04,1.218.092,2.415.145,3.6-.428,6.172-.632,12.358-.764,18.552-.073,1.285-.105,2.569-.079,3.837-.04,2.029-.073,4.057-.112,6.086-.132-.211-.277-.422-.422-.628-4.841-13.6-14.313-30.29-31.023-25.67a1.012,1.012,0,0,0-.586,1.468C20.4-436.848,22.914-429.8,27.906-424.3c5.21,5.742,13.344,7.327,20.6,8.879a.739.739,0,0,0,.659-.159h.007c-.086,4.368-.184,8.737-.362,13.107-.56,13.828-.323,27.681.244,41.516-3.656-8.119-7.061-16.407-15.063-21.294-9.037-5.518-21.09-4.527-30.581-.923a1.044,1.044,0,0,0-.606,1.517c6.27,9.394,11.131,20.886,20.715,27.506,6.5,4.493,18.857,8.039,25.977,2.865.29,5.726.619,11.451.948,17.167.613,10.536.922,21.128.823,31.717a41.687,41.687,0,0,0-13.338-18.307c-8.273-6.249-18.271-5.4-28.032-5.02a1.009,1.009,0,0,0-.678,1.712c11.013,13.771,21.307,36.325,41.614,36.814q-.543,11.084-1.818,22.095-1.64,13.95-4.294,27.757c-.494-5.042-.863-10.05-2.213-15.059-1.686-6.235-5.282-11.326-9.676-15.959-8.655-9.143-20.142-13.923-31.813-17.927-.757-.261-1.212.661-.929,1.249,6.31,13.1,3.932,29.083,13.667,40.71,3.926,4.693,8.984,6.433,14.747,7.856,3.675.908,12.192,1.774,14.945,5.521q-3.379,16.366-7.956,32.451c-.151.541-.3,1.085-.448,1.629q-.583,1.714-1.2,3.417c-.013.026-.033.047-.046.073-1.139,2.509-2.3,5.037-3.194,7.644-.237.538-.474,1.078-.7,1.622-.534.9-1.074,1.795-1.594,2.683-2.088,3.584-2.793,6.992,2.233,7.873a1.567,1.567,0,0,0,.52,0,.982.982,0,0,0,1.232-.381c5.348-8.833,7.917-19.119,10.6-29.025,2.43-8.965,4.492-18.02,6.244-27.14,4.09,4.054,15.722,4.329,19.556,4.385,6.448.094,12.943-3.371,18.455-6.386,3.952-2.16,7.6-4.771,11.632-6.791,4.7-2.349,9.59-4.223,14.187-6.781A1.185,1.185,0,0,0,112.919-247.724Z" transform="translate(0 0)" fill="#dabe79"/>
  </g>
</svg>
