<svg xmlns="http://www.w3.org/2000/svg" width="455.302" height="605.428" viewBox="0 0 455.302 605.428">
  <g id="Group_12" data-name="Group 12" transform="matrix(0.914, -0.407, 0.407, 0.914, 217.381, 591.393)">
    <path id="Path_4" data-name="Path 4" d="M250.679-522.108c-.165,13.709-2.394,27.6-3.432,41.271-.455,5.98-1.156,12.054-.874,18.056.522,11.046-2.785,22.642-6.6,32.879-8.08,21.7-23.013,39.076-40.436,53.943-8.283,7.065-17.377,12.911-26.079,19.41-1.91,1.426-3.806,2.931-5.615,4.533A109.024,109.024,0,0,1,183.9-372.279c12.206-12.32,26.926-21.943,35.1-37.75.038-.074-.091-.143-.133-.069-9.276,16.33-26.082,26.784-39.824,38.945A77.753,77.753,0,0,0,160.08-345.4a29.185,29.185,0,0,0-1.257-5.407,1.77,1.77,0,0,0-3.028-.268c-.1.163-.191.331-.293.5,2.052-9.2,6.2-18.024,10.814-26.159,8.861-15.615,25.2-28.442,28.576-46.678.009-.053-.074-.06-.087-.006-1.992,9.753-9.874,18.015-16.017,25.474a200.111,200.111,0,0,0-17.309,24.056,83.683,83.683,0,0,0-10.336,25.728,61.416,61.416,0,0,0-1.387,13.811c-.128.723-.239,1.451-.337,2.175-.3-2.093-.5-4.214-.61-6.352q0-2.614.058-5.233c.814-3.741,1.864-7.433,2.94-11.106,2.933-10.024,6.949-19.808,10.585-29.591a.214.214,0,0,0-.4-.15c-4.077,9.469-8.937,18.579-12.661,28.208.05-1.026.1-2.054.151-3.081.015-.264.02-.528.03-.79.882-10.845,2.512-21.653,3.995-32.428,3.149-22.885,7.833-44.794,19.164-65.216.7-1.271,1.437-2.53,2.186-3.777a.7.7,0,0,0,.473-.673c0-.038,0-.071.005-.107a130.827,130.827,0,0,1,19.887-25.055c6.9-6.783,15.006-11.334,22.941-16.674q1.691-1.14,3.381-2.275a78.086,78.086,0,0,0-9.25,9.723c-5.052,6.547-8.823,13.853-12.295,21.322-7.079,15.233-11.859,31.3-16.822,47.3a.075.075,0,0,0,.14.051c5.6-14.2,10.195-28.807,16.495-42.729A141.354,141.354,0,0,1,211.729-492c4.186-6.157,9.808-13.481,16.673-17.023a1.527,1.527,0,0,0,.6-.143c7.079-3.188,15.222-6.035,20.793-11.656a1.332,1.332,0,0,0,.239-1.633s.005,0,.006,0c.921-.136.645-.629.636.348M163-337.078c.094-.179.19-.359.288-.537-.031.208-.047.419-.072.625-.019.023-.03.051-.046.073a1.413,1.413,0,0,0-.17-.161m3.834,47.192a12.112,12.112,0,0,1-8.88,8.341c-8.894,2.221-14.785-3.547-18.216-10.927a.3.3,0,0,0,.092-.33,51.319,51.319,0,0,1-1.341-13.064c.6,3,1.282,5.98,2.084,8.986a.2.2,0,0,0,.4-.074c-.914-4.869-.545-9.973-.606-15a1.242,1.242,0,0,0,2.069-1.144,26.7,26.7,0,0,1-.54-2.773c.807.351,1.967-.01,1.928-1.062,0-.12-.016-.239-.021-.36,0,0,0,0,0,0s-.007-.026-.008-.039c-.007-.184-.024-.363-.033-.546a1.878,1.878,0,0,0,1.518-1.5c.148-.971.326-2.071.575-3.141.387,1.214.813,2.426,1.318,3.619a1.138,1.138,0,0,0,1.577.64,1.748,1.748,0,0,0,3.322-.013,1.666,1.666,0,0,0,.81-1.064c.006-.021.012-.045.016-.067a.8.8,0,0,0,1.1.276c.908,2.437,2.106,4.721,3.232,7.258.145.326.6.141.565-.184-.377-4.035-.488-8.115-.91-12.178-.039-.39-.059-.791-.061-1.2a1.433,1.433,0,0,0,.926.392,43.964,43.964,0,0,0,.79,5.482c.932,4.534,2.779,8.764,4.519,13.028a27.815,27.815,0,0,1,.888,10.836c-1.1,7.379-8.438,11.259-15.167,12.409a.183.183,0,0,0,.013.36c6.569.734,12.762-.351,17.133-5.7a13.943,13.943,0,0,0,.907-1.267m2.241,122.077c1.109,17.807,1.019,35.457-1.8,53.1-.792,4.951-1.888,9.855-3.038,14.742,1.156-11.1,1.711-22.3,2.609-33.4,2.362-29.132,1.42-58.408-1.3-87.481q-.329-5.243-.83-10.469.6,4.43,1.035,8.92c1.7,18.114,2.2,36.422,3.33,54.584m-7.4,69.932c-.563,5.185-1.189,10.751-2.3,16.215a1.244,1.244,0,0,0-.531.69,38.558,38.558,0,0,0-1.671,7.739,49.77,49.77,0,0,1-2.491,6.181c-.012-.172-.021-.346-.034-.518a.955.955,0,0,0-1.061-.894,623.1,623.1,0,0,0,12.5-109.932c.012-.477.017-.956.032-1.435.371,13.772.131,27.562-.647,41.313-.766,13.568-2.335,27.134-3.8,40.64m-6.821,33.81c0-.076-.007-.152-.012-.226.047-.063.088-.128.131-.189-.039.137-.08.276-.118.416M151.279-26.92q.2-1.011.4-2.016.986-2.94,1.848-5.894-.983,3.992-2.246,7.91m-2.365-4.414c-2.574,9.842-5.871,19.478-8.627,29.266-.045-1.192-.119-2.384-.253-3.575a1.137,1.137,0,0,0-1.4-1.019c.278-1.04.571-2.073.905-3.083,1.622-4.922,3.527-9.747,5.348-14.593a1.007,1.007,0,0,0,1.572-.324,70.852,70.852,0,0,0,4.308-17.16.834.834,0,0,0,.405-.159c-.638,3.558-1.334,7.1-2.262,10.649M144.475-7.474a1.975,1.975,0,0,0-.26-.14l.652-2.005q-.213,1.071-.392,2.145m-3.52,17.31c-.743,1.982-.441,1.988-2.236.314a17.346,17.346,0,0,1-2.29-2.933,1.24,1.24,0,0,0,.1-.347c.014-.091.036-.181.052-.272.31.221.649.464,1.016.759.009.17.01.337.02.507.1,1.652,2.315,1.425,2.887.257.025-.047.041-.1.065-.147a2,2,0,0,0,.72.892c-.114.322-.21.65-.33.969M137.476,2.4q0,2.049.086,4.089a6.254,6.254,0,0,1-.8-.827q.318-1.642.717-3.262m-.132-331.137c.018,0,.034.011.053.015.525.814,1.031,1.639,1.513,2.486-.459-.591-.937-1.164-1.441-1.721,0,0,0,0,0-.006a2.542,2.542,0,0,0-.128-.775m4.691-2.739c-.048.024-.092.049-.135.076-.013-.191-.021-.38-.035-.569.055.165.112.329.17.493m-15.537-40a134.843,134.843,0,0,0-21.75-29.648c-1.438-1.47-2.894-2.926-4.351-4.373a27.442,27.442,0,0,0-2.909-5.331,45.234,45.234,0,0,1-5.291-11.1c-1.961-7.136-5.141-13.849-6.914-21.074A106.526,106.526,0,0,1,82.1-466.2c-.176-7.766.8-15.38,1.006-23.119,0-.1-.158-.152-.188-.042-3.53,14.78-3,31.969-.843,46.948,1,6.93,2.664,14.242,5.818,20.573a1.413,1.413,0,0,0-1.151.582,1.465,1.465,0,0,0-.606.723c-.294-.366-.59-.726-.884-1.093a1.181,1.181,0,0,0-.347-.3C72.508-439.7,76.693-466.17,79.663-486c1.312-8.758,2.73-17.542,4.352-26.246.88-4.734,2.185-15.935,8.092-17.342,3.255-.776,6.727,2.377,8.947,4.287,4.747,4.086,8.254,9.449,11.5,14.74,6.291,10.259,11.245,21.32,16.522,32.115,5.337,10.917,10.744,21.62,13.692,33.49a135.487,135.487,0,0,1,3.486,23.427c-.335,2.875-.684,5.773-.937,8.662-2.062-9.705-4.806-19.317-7.4-28.832-3.68-13.5-9.01-26.12-14.185-39.072-.082-.2-.39-.058-.31.146,5.127,13.159,8.988,27.127,12.6,40.784,3.588,13.586,4.936,27.445,6.395,41.384a262.1,262.1,0,0,1,1.524,41.351c-.17,3.208-.372,6.44-.5,9.669-.427-1.6-.869-3.2-1.369-4.792-.6-1.918-3.917-2.241-3.895.181.047,5.788.607,11.581.816,17.364q-.907-4.759-2.261-9.345c-1.546-9.756-5.47-18.673-10.233-27.448m3.311,20.406q-.844-1.029-1.752-2.024a1.768,1.768,0,0,0-2.81.3c-10.618-11.14-25.72-18.215-39.978-22.937a.311.311,0,0,0-.218.581,80.616,80.616,0,0,1,26.537,15.316c1.515,1.347,3,2.688,4.461,4.053-17.269-12.515-44.041-15.638-61.042-26.707a.439.439,0,0,0-.507.715c12.25,9.315,26.187,13.206,40.326,18.636a79.134,79.134,0,0,1,20.112,11.3,36.225,36.225,0,0,1,4.535,4.219,36.577,36.577,0,0,0-8.588-1.76,1.747,1.747,0,0,0-1.481,2.832,33.387,33.387,0,0,0,5.912,6.305c-11.024-3.988-23.409-5.7-34.2-8.362-9.661-2.387-19.334-5.592-27.991-10.58-9.285-5.345-16.534-13.48-22.245-22.441-7.818-12.274-13.661-26.5-18.984-40.013a164.712,164.712,0,0,1-7.231-22.094c-1.339-5.633-2.728-12.119-1.184-17.845,2.918-10.81,17.533-1.423,22.681,1.972,13.889,9.156,25.625,21.283,38.7,31.51,6.979,5.457,14.569,10.057,21.551,15.523a154.382,154.382,0,0,1,22.807,21.533c2.962,3.5,5.813,7.136,8.509,10.9a126.166,126.166,0,0,0-9.058-10.238,107.364,107.364,0,0,0-25.893-18.837c-5.832-3.085-11.881-5.559-17.538-9-5.572-3.389-10.915-6.9-16.773-9.791-.258-.128-.491.311-.237.451,10.264,5.678,19.624,13.383,30.433,18.018,10.52,4.51,19.231,11.559,27.064,19.789A119.443,119.443,0,0,1,130.4-351.114a2.214,2.214,0,0,0-.59.044M128.3-333.737c-.024-.022-.048-.044-.074-.066a.572.572,0,0,0-.05-.061c.053.051.111.1.166.156-.012-.01-.028-.02-.041-.03m-7.708-8.387c-.274-.178-.545-.354-.82-.53a.649.649,0,0,0,.471-.267c.08.04.16.076.24.116l.23.191a1.276,1.276,0,0,0-.121.49m19.8-156.32a61.753,61.753,0,0,1,3.344-6.448q2.244-3.339,4.73-6.52a65.862,65.862,0,0,0-2.87,15.272c-.976,10.141-.184,20.188-.064,30.314a.234.234,0,0,0,.466.042c1.707-16.546-.814-35.557,6.857-50.912,3.933-4.511,8.144-8.785,12.461-12.879,7.483,8.962,7.649,21.733,7.615,32.934-.018,6.085.254,12.16.076,18.248-.088,3-.169,6.112-.041,9.193q-3.19,4.777-5.9,9.858c.672-3.335,1.251-6.686,1.709-10.065a119.006,119.006,0,0,0,.19-30.7c-.016-.136-.228-.1-.209.04,1.277,9.65-.48,19.452-2.292,28.919-1.019,5.319-2.266,10.6-3.479,15.881-.081.356-.172.717-.261,1.077.4-3.291.752-6.585,1.023-9.893.561-6.951,1.208-13.873,1.447-20.847.243-7.031-.849-13.529-1.317-20.461-.007-.1-.152-.068-.148.028.475,7.048-.557,14.745-.965,21.815a207.778,207.778,0,0,1-2.183,20.81c-.95,5.962-1.884,11.929-2.851,17.889-.009-2.375-.126-4.754-.222-7.087a199.162,199.162,0,0,1,.817-32.244c1.321-11.02,3.28-21.963,4.983-32.927a.418.418,0,0,0-.8-.183c-3.217,10.194-4.943,20.639-6.324,31.22-1.464,11.184-3.738,22.378-3.623,33.7a118.779,118.779,0,0,1-.914,15.665,136.2,136.2,0,0,0-3.3-27.988.106.106,0,0,0-.209.038c.284,5.358.245,10.758.052,16.152q-.451-1.954-.912-3.905a1.723,1.723,0,0,0-.012-.849c-.4-1.492-.886-2.957-1.284-4.448a2,2,0,0,0-.986-1.3c-1.4-3.109-2.978-6.141-4.45-9.211-2.065-4.309-5.308-10.061-5.265-15.2a95.914,95.914,0,0,1,5.113-15.027M173.5-191.155a1.1,1.1,0,0,0,.327.5q.11,3.3.17,6.606c-.293-2.824-.62-5.648-.873-8.463.124.453.239.911.377,1.358m.551,20.471q-.052-1.15-.1-2.3a1,1,0,0,0,.123-.006c0,.77-.013,1.539-.02,2.309M111.862-82.718A133.628,133.628,0,0,1,92-110.154c-4.012-7.34-6.864-15.137-9.936-22.862a.658.658,0,0,0,.043-.658c-.41-.817-.857-1.676-1.335-2.538-.365-.888-.73-1.778-1.108-2.662a.226.226,0,0,0-.428.082c-.211-.327-.431-.645-.65-.962a.635.635,0,0,0-.088-.369,12.265,12.265,0,0,0-3.368-3.6c-3.583-3.137-7.62-5.315-11.567-7.841,3.778-.555,7.065.943,10.265,3.215a2.1,2.1,0,0,0,2.9-.493,13.359,13.359,0,0,0,1.32-2.7c.227.3.445.6.679.89a1.618,1.618,0,0,0,2.83-.89c0-.025,0-.064.007-.1a1.12,1.12,0,0,0,.567.144,16.42,16.42,0,0,1,.688,4.454,1.015,1.015,0,0,0,.927,1.018A17.488,17.488,0,0,0,83.027-140,44.041,44.041,0,0,0,85.7-127.725c2.906,8.71,7.659,16.815,12.1,24.813,6.257,11.28,14.912,21.06,24.344,29.768,3.037,2.8,6.19,5.591,9.445,8.284-7.262-5.063-13.728-11.484-19.724-17.859M84.794-152.951a18.858,18.858,0,0,1-.622,2.152,32.853,32.853,0,0,1-.656-3.28,2.5,2.5,0,0,0,.491.715,1.377,1.377,0,0,0,.788.413m-29.668-8.33c-6.332-8.075-12.542-17.577-15.031-27.67-3.041-12.346-2.823-26.065-1.6-38.621.517-5.313,1.216-12.328,5.461-16.142,5.4-4.853,14.332,5.029,17.454,8.162a99.752,99.752,0,0,1,19.931,28.605c4.764,10.4,6.705,21.789,7.793,33.122a89.279,89.279,0,0,1-.467,19.171.769.769,0,0,0-1.131.518c-.013.044-.025.091-.038.135.068-.369.136-.74.208-1.107a34.849,34.849,0,0,0,1.494-6.415c.135-.959-1.228-1.2-1.6-.389-.018-.55-.051-1.1-.1-1.656.068-1.842.038-3.685-.052-5.525A68.464,68.464,0,0,0,83.683-187.4c-3.958-11.818-11.025-22.957-18.444-32.865-.034-.046-.1.01-.066.054a114.361,114.361,0,0,1,16.19,34.944,77.507,77.507,0,0,1,2.677,18.923,84.319,84.319,0,0,1-.559,9.011,20.2,20.2,0,0,0-.212,2.2.818.818,0,0,0-.574-.326c-.235-.815-.451-1.634-.659-2.466a1.483,1.483,0,0,0-2.381-.861,4,4,0,0,0-1.242,3.036,1.449,1.449,0,0,0-2.117.719,15.963,15.963,0,0,1-1.719,2.25c-4-2.251-8.625-2.9-12.526-.12-2.532-2.675-4.828-5.7-6.926-8.376M251.38-525.038c-4.687-1-10.988,3.794-14.671,6.013-6.548,3.946-12.775,8.394-19.27,12.418-7.654,4.742-15.668,8.246-22.835,13.859a99.22,99.22,0,0,0-18.626,19.261c.7-8.9,1.685-17.809,1.569-26.689-.153-11.713-1.961-24.857-10.582-33.558a2.038,2.038,0,0,0-2.831-.25c-9.813,9.2-19.057,19.237-25.8,30.944-3.569,6.2-6.319,13.356-6.5,20.39-.187-.45-.378-.9-.563-1.355a185.77,185.77,0,0,0-16.617-31.159c-5.69-8.7-22.338-28.211-30.669-11.468-3.387,6.809-4.376,14.73-5.581,22.153-1.526,9.419-3.1,18.826-4.229,28.3a124.617,124.617,0,0,0-.213,31.581,44.937,44.937,0,0,0,9.675,22.884,1.205,1.205,0,0,0-.377.821c-2.644-2.086-5.36-4.082-8.172-5.959-8.522-5.7-16.186-12.553-24.029-19.134-8.011-6.724-16.1-13.73-25.186-18.981-5.216-3.015-11.719-6-17.909-5-10.692,1.734-8.031,17.085-6.528,24.277,2.7,12.924,7.616,25.433,12.764,37.548,5.635,13.249,11.652,26.62,20.708,37.919,11.009,13.731,26.309,22,43.275,25.861,12.049,2.742,26.516,3.573,38.959,7.82a1.285,1.285,0,0,0,.667.464c17.045,5.571,10.512,27.661,14.913,40.9,2.9,8.735,9.919,17.85,19.155,19.138,4.6,20.581,8.7,41.543,10.294,62.584a441.985,441.985,0,0,1-.008,65.671A656.171,656.171,0,0,1,151.712-70.54c-.123-.227-.249-.458-.39-.683a2.161,2.161,0,0,0-2.219-1c-.962-1.619-3.284-.624-3.651,1.01a6.685,6.685,0,0,0,.056,2.867c0,.059,0,.112.009.177.159.94.278,1.886.394,2.83-14.054-7.539-25.63-19.573-35.6-31.7a117.734,117.734,0,0,1-15.548-24.04c-2.565-5.367-4.2-11.038-6.084-16.615a1.385,1.385,0,0,0,.224-.525c1.132-5.459,3.338-10.617,4.2-16.188a93.555,93.555,0,0,0,1.03-17.01c-.351-10.906-3.79-20.455-7.847-30.439a113.294,113.294,0,0,0-16.69-28.065A116.508,116.508,0,0,0,58.233-241.8c-2.3-2.152-4.76-4.295-7.765-5.377-11.01-3.966-14.279,11.928-15.4,19.3-1.873,12.376-1.115,26.412,1.405,38.666,1.917,9.289,7.256,17.941,12.614,25.61a91.708,91.708,0,0,0,12.567,14.35,24.436,24.436,0,0,0,5.462,4.3c1.535.758,3.23,1.38,4.865,2.107.164.163.332.327.495.491,2.745,2.793,4.7,6.023,7.567,8.665,3.455,17.594,13.4,34.35,24.411,48.091a147.588,147.588,0,0,0,22.569,22.175c3.918,3.17,8.147,5.251,12.462,7.79a16.513,16.513,0,0,1,7.243,8.559q-.966,4.2-1.973,8.4c-.965,3.987-1.9,8.038-2.857,12.1q-.383,1.029-.77,2.057c-1.981,5.31-4,10.583-5.579,16.033-1.222,4.224-2.472,8.99-1.642,13.407a9.035,9.035,0,0,0-.053,1.124c-.558,3.647,2.868,8.974,6.6,9.3,1.453.129,2.526-.793,3.335-2.045.3.234.788.228.892-.217q.557-2.369,1.142-4.736c1.032-3.27,1.817-6.63,2.547-9.992,4.947-18.864,10.477-37.588,13.759-56.84,2.141-12.554,5.283-24.942,8.12-37.351A273.783,273.783,0,0,0,176-133.045c2.211-25.082,2.981-50.347,1.156-75.478-1.769-24.342-7.517-47.848-11.23-71.873-.005-.03-.016-.057-.023-.084,7.261-6.823,7.218-19.466,6.253-29.1-1.084-10.8-10.494-25.986-3.692-36.259.327-.45.651-.9.988-1.335a1.283,1.283,0,0,0-.19-1.867q1.609-1.318,3.319-2.576c8.63-6.356,18-11.533,26.52-18.081,17.4-13.359,32.5-30.055,42.119-49.879,4.818-9.926,7.307-20.436,8.579-31.351.84-7.2.352-14.381.6-21.6.515-15.082,2.378-30.085,2.992-45.156.092-2.249,1.052-6.71-2-7.361" transform="translate(0)" fill="#dabe79"/>
  </g>
</svg>
